<svg width="242" height="242" viewBox="0 0 242 242" fill="none" xmlns="http://www.w3.org/2000/svg">
<path d="M139.695 167.637C139.237 172.482 138.616 177.325 138.076 182.07H154.549C154.41 180.67 154.048 179.828 154.288 179.207C155.73 175.224 153.409 172.703 150.824 170.421C146.182 166.338 141.398 162.414 136.414 158.21C135.573 159.853 134.514 161.093 136.594 161.934C139.257 163.014 139.936 165.136 139.695 167.637Z" fill="white"/>
<path d="M0 120.659C0 187.313 54.044 241.359 120.7 241.359C187.354 241.359 241.379 187.313 241.379 120.659C241.379 54.705 188.494 1.121 122.82 0H122.582C121.159 0.02 119.718 0.319999 118.257 0.779999C117.757 0.940999 117.256 1.10099 116.736 1.30099C116.697 1.32199 116.656 1.322 116.617 1.342C76.844 15.794 54.065 43.416 50.642 86.472C49.641 98.922 52.084 111.052 56.447 122.743C60.81 134.452 67.335 144.76 75.583 153.427C76.083 146.641 76.384 139.796 77.185 132.99C77.925 126.645 80.807 121.261 86.372 117.798C88.454 116.497 90.937 115.876 93.258 114.936C92.378 113.675 91.477 112.434 90.576 111.153C89.515 113.055 88.694 114.536 88.055 115.657C86.793 113.375 85.633 111.533 84.752 109.572C84.111 108.191 83.351 106.57 83.51 105.168C84.211 99.583 87.513 97.24 92.958 98.123C93.099 97.802 93.278 97.461 93.358 97.102C94.379 92.138 98.242 90.837 102.486 89.996C106.488 89.216 109.371 90.977 111.814 93.94C112.435 94.7 113.355 95.301 114.236 95.681C116.597 96.661 117.218 98.624 117.478 100.845C117.558 101.566 117.218 102.467 117.558 102.967C119.56 105.89 118.12 108.472 116.817 111.855C116.077 110.213 115.577 109.153 115.097 108.091C114.435 109.492 114.337 110.914 114.156 112.315C114.076 113.016 114.076 113.896 113.656 114.317C112.516 115.457 111.254 116.539 109.893 117.399C108.692 118.159 107.331 118.96 105.971 119.101C103.389 119.361 102.188 120.523 103.348 122.925C104.429 125.166 104.008 127.068 103.469 129.17C102.168 134.134 103.829 138.698 105.21 144.323C109.514 140.679 113.337 137.678 116.9 134.355C118.34 132.993 119.122 130.993 116.839 129.33C115.219 128.129 115.299 126.989 116.88 125.727C121.004 122.444 125.067 119.082 129.21 115.799C132.694 113.037 132.793 112.977 136.195 115.86C137.757 117.2 139.039 117.641 140.919 116.579C142.862 115.478 143.863 117.561 144.604 118.501C145.605 119.762 143.322 125.747 141.801 126.868C138.296 129.43 134.795 131.952 131.093 134.634C132.514 136.175 133.793 137.416 134.913 138.797C141.92 147.565 149.045 156.232 155.793 165.179C160.516 171.444 166.922 173.926 174.268 174.588C176.748 174.807 179.531 174.807 181.753 173.887C185.956 172.106 189.841 169.542 193.862 167.361C194.364 167.101 195.005 167.061 195.564 166.922C195.544 167.502 195.683 168.144 195.483 168.643C195.246 169.245 194.804 169.805 194.323 170.226C188.779 175.029 183.594 180.393 177.59 184.498C165.219 192.923 151.468 198.267 136.576 200.472C132.633 201.052 132.752 201.07 132.552 204.975C132.094 213.621 131.514 222.289 130.893 230.935C130.852 231.695 130.15 232.417 129.749 233.177C129.029 232.617 128.069 232.217 127.669 231.515C126.949 230.215 126.166 228.736 126.129 227.29C125.986 223.028 123.944 219.567 121.864 216.083C121.363 215.282 120.963 214.421 120.522 213.579C119.102 210.898 119.481 208.677 121.785 206.495C122.923 205.415 123.445 203.634 124.426 201.792C123.106 201.711 122.546 201.649 122.003 201.649C99.666 201.51 79.329 195.366 61.214 182.014C50.825 174.368 42.239 165.201 35.353 154.311C27.225 141.421 22.241 127.429 20.46 112.337C18.558 96.144 20.42 80.391 26.106 65.058C29.749 55.249 34.792 46.202 41.177 37.995C49.824 26.866 60.473 17.859 72.905 11.233C74.445 10.432 74.786 9.17099 72.884 9.85199C72.843 9.85199 72.804 9.87299 72.743 9.89299C29.945 28.422 0 71.039 0 120.659Z" fill="white"/>
</svg>
